<svg width="29" height="29" viewBox="0 0 29 29" fill="none" xmlns="http://www.w3.org/2000/svg">
<g id="reactjs-icon 1" clip-path="url(#clip0_2_30)">
<g id="Group">
<path id="Vector" d="M14.4652 17.0241C15.892 17.0241 17.0486 15.8675 17.0486 14.4408C17.0486 13.0141 15.892 11.8575 14.4652 11.8575C13.0385 11.8575 11.8819 13.0141 11.8819 14.4408C11.8819 15.8675 13.0385 17.0241 14.4652 17.0241Z" fill="#00D8FF"/>
<g id="Group_2">
<path id="Vector_2" fill-rule="evenodd" clip-rule="evenodd" d="M14.4657 9.18842C17.9342 9.18842 21.1563 9.68611 23.5857 10.5225C26.5129 11.5302 28.3126 13.0577 28.3126 14.4409C28.3126 15.8822 26.4053 17.5049 23.2619 18.5464C20.8854 19.3338 17.7582 19.7448 14.4657 19.7448C11.09 19.7448 7.89344 19.359 5.49019 18.5378C2.44964 17.4985 0.618286 15.8547 0.618286 14.4409C0.618286 13.0689 2.33666 11.5533 5.22267 10.547C7.6612 9.69687 10.9629 9.18842 14.4652 9.18842H14.4657Z" stroke="#00D8FF" stroke-width="1.23587"/>
<path id="Vector_3" fill-rule="evenodd" clip-rule="evenodd" d="M9.89368 11.8297C11.6265 8.82514 13.6672 6.28255 15.6055 4.59579C17.9407 2.5635 20.1631 1.7676 21.3612 2.45851C22.6099 3.17856 23.0627 5.64159 22.3946 8.88483C21.8899 11.3369 20.6832 14.2512 19.0383 17.1034C17.3519 20.0276 15.4209 22.604 13.509 24.2751C11.0898 26.3899 8.75092 27.1552 7.52612 26.4489C6.33762 25.764 5.88313 23.5178 6.45328 20.515C6.93501 17.9778 8.14395 14.8637 9.89312 11.8297L9.89368 11.8297Z" stroke="#00D8FF" stroke-width="1.23587"/>
<path id="Vector_4" fill-rule="evenodd" clip-rule="evenodd" d="M9.89688 17.1109C8.15919 14.1097 6.97611 11.0713 6.48227 8.54972C5.88782 5.51154 6.30812 3.18862 7.50516 2.4957C8.75257 1.77354 11.1126 2.61126 13.5887 4.80987C15.4609 6.47212 17.3833 8.97254 19.0329 11.822C20.7242 14.7435 21.9918 17.7032 22.4849 20.1941C23.1088 23.3463 22.6038 25.7547 21.3802 26.4631C20.1929 27.1504 18.0202 26.4227 15.7034 24.4291C13.7459 22.7447 11.6517 20.142 9.89688 17.1109V17.1109Z" stroke="#00D8FF" stroke-width="1.23587"/>
</g>
</g>
</g>
<defs>
<clipPath id="clip0_2_30">
<rect width="28.9295" height="28.9295" fill="white"/>
</clipPath>
</defs>
</svg>
